<?xml version="1.0" encoding="UTF-8"?><!-- Created with Inkscape (http://www.inkscape.org/) --><svg xmlns:svg="http://www.w3.org/2000/svg" xmlns="http://www.w3.org/2000/svg" xmlns:sodipodi="http://sodipodi.sourceforge.net/DTD/sodipodi-0.dtd" xmlns:inkscape="http://www.inkscape.org/namespaces/inkscape" version="1.1" id="svg2" width="1122.52" height="793.70667" viewBox="0 0 1122.52 793.70667"><defs id="defs6"><clipPath clipPathUnits="userSpaceOnUse" id="clipPath16"><path d="M 0,595.28 H 841.89 V 0 H 0 Z" id="path14"/></clipPath><clipPath clipPathUnits="userSpaceOnUse" id="clipPath300"><path d="m 231.085,374.764 c 0,-60.682 54.463,-109.875 121.646,-109.875 v 0 c 67.183,0 121.646,49.193 121.646,109.875 v 0 c 0,60.684 -54.463,109.877 -121.646,109.877 v 0 c -67.183,0 -121.646,-49.193 -121.646,-109.877" id="path298"/></clipPath><radialGradient fx="0" fy="0" cx="0" cy="0" r="1" gradientUnits="userSpaceOnUse" gradientTransform="matrix(121.64558,0,0,-109.87617,352.73087,374.76492)" spreadMethod="pad" id="radialGradient320"><stop style="stop-opacity:0.09999237;stop-color:#ffffff" offset="0" id="stop310"/><stop style="stop-opacity:0.09999237;stop-color:#ffffff" offset="0.00687886" id="stop312"/><stop style="stop-opacity:0.09999237;stop-color:#ffffff" offset="0.79869233" id="stop314"/><stop style="stop-opacity:1;stop-color:#ffffff" offset="0.997776" id="stop316"/><stop style="stop-opacity:1;stop-color:#ffffff" offset="1" id="stop318"/></radialGradient><mask maskUnits="userSpaceOnUse" x="0" y="0" width="1" height="1" id="mask322"><g id="g332"><g id="g330"><g id="g328"><g id="g326"><path d="M -32768,32767 H 32767 V -32768 H -32768 Z" style="fill:url(#radialGradient320);stroke:none" id="path324"/></g></g></g></g></mask><radialGradient fx="0" fy="0" cx="0" cy="0" r="1" gradientUnits="userSpaceOnUse" gradientTransform="matrix(121.64558,0,0,-109.87617,352.73087,374.76492)" spreadMethod="pad" id="radialGradient348"><stop style="stop-opacity:1;stop-color:#ffffff" offset="0" id="stop338"/><stop style="stop-opacity:1;stop-color:#ffffff" offset="0.00687886" id="stop340"/><stop style="stop-opacity:1;stop-color:#ffffff" offset="0.79869233" id="stop342"/><stop style="stop-opacity:1;stop-color:#b1e0f9" offset="0.997776" id="stop344"/><stop style="stop-opacity:1;stop-color:#b1e0f9" offset="1" id="stop346"/></radialGradient><clipPath clipPathUnits="userSpaceOnUse" id="clipPath358"><path d="M 0,595.28 H 841.89 V 0 H 0 Z" id="path356"/></clipPath></defs><g id="g8" transform="matrix(1.3333333,0,0,-1.3333333,0,793.70667)"><g id="g10"><g id="g12" clip-path="url(#clipPath16)"><g id="g18" transform="translate(298.4035,209.0705)"><path d="m 0,0 11.313,77.4 c 0,0 2.042,17.958 -13.904,20.01 C -18.537,99.461 -25.74,93.798 -27.503,81.383 -29.267,68.967 -43.384,2.96 -43.384,2.96 c 0,0 6.929,-11.465 21.252,-12.54 C -7.808,-10.656 0,0 0,0" style="fill:#ffed00;fill-opacity:1;fill-rule:nonzero;stroke:none" id="path20"/></g><g id="g22" transform="translate(149.4193,183.4899)"><path d="m 0,0 c 5.378,2.585 26.445,2.235 35.388,-1.536 12.8,-5.398 26.556,-20.81 42.078,-20.81 15.522,0 25.659,18.032 38.863,23.818 21.188,9.285 28.612,-4.502 42.165,10.875" style="fill:none;stroke:#49c1ec;stroke-width:12;stroke-linecap:round;stroke-linejoin:round;stroke-miterlimit:10;stroke-dasharray:none;stroke-opacity:1" id="path24"/></g><g id="g26" transform="translate(263.4682,118.4732)"><path d="m 0,0 10.586,-36.155 c 1.655,-5.652 7.508,-8.914 13.073,-7.285 5.565,1.63 8.735,7.533 7.08,13.186 l -8.8,30.059 45.208,45.429 c 4.106,4.125 4.104,10.871 -0.001,15.063 -4.106,4.195 -10.763,4.251 -14.867,0.126 L 2.643,10.545 C -0.086,7.803 -1.1,3.756 0,0" style="fill:#49c1ec;fill-opacity:1;fill-rule:nonzero;stroke:none" id="path28"/></g><g id="g30" transform="translate(369.0293,94.9714)"><path d="m 0,0 c -3.071,0 -5.988,1.345 -7.983,3.68 -1.995,2.334 -2.868,5.425 -2.389,8.459 L 0.529,81.128 c 0.905,5.727 6.279,9.639 12.01,8.732 5.728,-0.904 9.638,-6.282 8.732,-12.009 L 11.516,16.106 Z" style="fill:#49c1ec;fill-opacity:1;fill-rule:nonzero;stroke:none" id="path32"/></g><g id="g34" transform="translate(153.1647,178.0748)"><path d="M 0,0 C 2.867,9.794 1.758,20.863 -18.022,29.01 -37.395,36.989 -75.471,18.45 -75.708,16.865 -76.061,14.504 -49.336,-7.713 -33.847,-9.646 -19.798,-11.399 -2.184,-7.461 0,0" style="fill:#adddf2;fill-opacity:1;fill-rule:nonzero;stroke:none" id="path36"/></g><g id="g38" transform="translate(474.6786,405.9804)"><path d="m 0,0 c 14.11,-60.434 -29.907,-122.374 -98.315,-138.346 -68.408,-15.971 -135.302,20.073 -149.412,80.507 -14.11,60.435 29.907,122.374 98.315,138.346 C -81.004,96.479 -14.11,60.434 0,0" style="fill:#adddf2;fill-opacity:1;fill-rule:nonzero;stroke:none" id="path40"/></g><g id="g42" transform="translate(456.2346,407.8449)"><path d="m 0,0 c 11.654,-49.916 -24.702,-101.074 -81.203,-114.266 -56.501,-13.192 -111.752,16.579 -123.406,66.494 -3.997,17.12 6.626,52.847 34.831,64.848 29.8,12.681 36.961,1.25 60.637,6.778 23.676,5.527 29.083,17.032 56.638,21.59 C -23.6,50.225 -4.248,18.196 0,0" style="fill:#49c1ec;fill-opacity:1;fill-rule:nonzero;stroke:none" id="path44"/></g><g id="g46" transform="translate(346.5818,473.4095)"><path d="M 0,0 C 9.891,-2.945 11.43,-5.171 15.844,6.582 21.017,20.355 43.748,103.591 1.902,105.039 -33.405,106.26 -18.275,8.911 -18.185,0.041 -18.095,-8.829 -12.229,5.345 0,0" style="fill:#adddf2;fill-opacity:1;fill-rule:nonzero;stroke:none" id="path48"/></g><g id="g50" transform="translate(369.2404,368.2102)"><path d="m 0,0 c 0.173,-2.101 -1.445,-3.933 -3.615,-4.092 -2.17,-0.159 -4.07,1.415 -4.243,3.516 -0.173,2.101 1.445,3.934 3.615,4.092 C -2.073,3.675 -0.173,2.101 0,0" style="fill:#e63312;fill-opacity:1;fill-rule:nonzero;stroke:none" id="path52"/></g><g id="g54" transform="translate(330.5065,322.727)"><path d="m 0,0 c 2.196,-9.404 -3.688,-18.818 -13.141,-21.025 -9.454,-2.207 -18.898,3.628 -21.093,13.032 -2.196,9.404 3.687,18.818 13.141,21.025 C -11.639,15.239 -2.196,9.404 0,0" style="fill:#adddf2;fill-opacity:1;fill-rule:nonzero;stroke:none" id="path56"/></g><g id="g58" transform="translate(441.554,356.3463)"><path d="m 0,0 c 2.056,-8.807 -3.453,-17.621 -12.306,-19.688 -8.853,-2.067 -17.696,3.397 -19.752,12.203 -2.056,8.807 3.453,17.621 12.306,19.688 C -10.899,14.27 -2.056,8.807 0,0" style="fill:#adddf2;fill-opacity:1;fill-rule:nonzero;stroke:none" id="path60"/></g><g id="g62" transform="translate(250.813,325.9773)"><path d="M 0,0 C 7.675,-4.335 61.573,-26.243 110.913,-13.65" style="fill:none;stroke:#ffed00;stroke-width:4;stroke-linecap:round;stroke-linejoin:round;stroke-miterlimit:10;stroke-dasharray:none;stroke-opacity:1" id="path64"/></g><g id="g66" transform="translate(367.4539,313.3603)"><path d="m 0,0 c 0,-3.8 -3.08,-6.88 -6.88,-6.88 -3.8,0 -6.88,3.08 -6.88,6.88 0,3.8 3.08,6.88 6.88,6.88 C -3.08,6.88 0,3.8 0,0" style="fill:#ffed00;fill-opacity:1;fill-rule:nonzero;stroke:none" id="path68"/></g><g id="g70" transform="translate(262.3584,352.6169)"><path d="m 0,0 c -0.681,0 -1.298,0.467 -1.459,1.16 -0.188,0.806 0.313,1.613 1.12,1.801 L 14.985,6.54 C 15.789,6.724 16.599,6.227 16.787,5.419 16.975,4.613 16.474,3.806 15.667,3.618 L 0.342,0.04 C 0.228,0.013 0.113,0 0,0" style="fill:#f7f7db;fill-opacity:1;fill-rule:nonzero;stroke:none" id="path72"/></g><g id="g74" transform="translate(272.4004,332.299)"><path d="m 0,0 c -0.378,0 -0.757,0.142 -1.048,0.427 -0.593,0.579 -0.604,1.529 -0.025,2.121 l 11.344,11.606 c 0.58,0.593 1.53,0.602 2.121,0.024 0.592,-0.579 0.603,-1.529 0.024,-2.121 L 1.073,0.452 C 0.779,0.151 0.39,0 0,0" style="fill:#f7f7db;fill-opacity:1;fill-rule:nonzero;stroke:none" id="path76"/></g><g id="g78" transform="translate(281.2246,369.865)"><path d="M 0,0 C -0.138,0 -0.277,0.019 -0.416,0.059 L -14.847,4.21 c -0.796,0.229 -1.256,1.061 -1.027,1.856 0.229,0.797 1.06,1.258 1.856,1.027 L 0.414,2.942 C 1.21,2.713 1.669,1.882 1.44,1.086 1.251,0.428 0.651,0 0,0" style="fill:#f7f7db;fill-opacity:1;fill-rule:nonzero;stroke:none" id="path80"/></g><g id="g82" transform="translate(435.6631,311.1672)"><path d="m 0,0 c -0.314,0 -0.632,0.099 -0.902,0.303 -0.661,0.499 -0.793,1.439 -0.294,2.1 l 8.12,10.761 c 0.5,0.661 1.44,0.792 2.1,0.294 0.662,-0.499 0.793,-1.439 0.294,-2.101 L 1.198,0.597 C 0.903,0.206 0.454,0 0,0" style="fill:#ffffff;fill-opacity:1;fill-rule:nonzero;stroke:none" id="path84"/></g><g id="g86" transform="translate(268.8521,314.5241)"><path d="m 0,0 c -0.394,0 -0.787,0.154 -1.082,0.46 l -9.282,9.659 c -0.574,0.597 -0.555,1.547 0.042,2.121 0.596,0.573 1.546,0.555 2.121,-0.042 L 1.082,2.54 C 1.656,1.942 1.637,0.993 1.04,0.418 0.749,0.139 0.374,0 0,0" style="fill:#ffffff;fill-opacity:1;fill-rule:nonzero;stroke:none" id="path88"/></g><g id="g90" transform="translate(244.2983,374.0564)"><path d="m 0,0 c -0.056,0 -0.112,0.003 -0.168,0.009 -0.824,0.092 -1.416,0.834 -1.325,1.658 l 1.514,13.562 c 0.091,0.824 0.832,1.416 1.657,1.325 0.823,-0.092 1.416,-0.834 1.324,-1.658 L 1.489,1.333 C 1.403,0.567 0.754,0 0,0" style="fill:#ffffff;fill-opacity:1;fill-rule:nonzero;stroke:none" id="path92"/></g><g id="g94" transform="translate(350.4282,503.6916)"><path d="M 0,0 C -0.277,0 -0.557,0.076 -0.807,0.236 -1.505,0.683 -1.708,1.61 -1.262,2.308 L 8.781,18.009 c 0.446,0.699 1.375,0.903 2.072,0.456 0.698,-0.446 0.902,-1.374 0.456,-2.072 L 1.265,0.692 C 0.979,0.244 0.495,0 0,0" style="fill:#ffffff;fill-opacity:1;fill-rule:nonzero;stroke:none" id="path96"/></g><g id="g98" transform="translate(345.3584,530.7205)"><path d="M 0,0 C -0.488,0 -0.966,0.237 -1.254,0.675 L -12.651,17.99 c -0.455,0.692 -0.264,1.622 0.428,2.078 0.693,0.456 1.623,0.263 2.078,-0.428 L 1.251,2.325 C 1.707,1.633 1.515,0.703 0.823,0.247 0.569,0.08 0.283,0 0,0" style="fill:#ffffff;fill-opacity:1;fill-rule:nonzero;stroke:none" id="path100"/></g><g id="g102" transform="translate(441.5791,395.5534)"><path d="m 0,0 c -0.682,0 -1.298,0.467 -1.46,1.16 -0.188,0.806 0.314,1.613 1.12,1.801 L 10.303,5.446 C 11.112,5.634 11.915,5.133 12.104,4.326 12.293,3.52 11.791,2.713 10.984,2.524 L 0.342,0.04 C 0.228,0.013 0.112,0 0,0" style="fill:#f7f7db;fill-opacity:1;fill-rule:nonzero;stroke:none" id="path104"/></g><g id="g106" transform="translate(450.9609,381.4304)"><path d="m 0,0 c -0.25,0 -0.503,0.062 -0.735,0.194 l -11.239,6.333 c -0.721,0.407 -0.977,1.322 -0.57,2.043 0.407,0.723 1.324,0.976 2.043,0.571 L 0.737,2.807 C 1.459,2.4 1.715,1.486 1.308,0.764 1.032,0.275 0.523,0 0,0" style="fill:#f7f7db;fill-opacity:1;fill-rule:nonzero;stroke:none" id="path108"/></g><g id="g110" transform="translate(438.7422,411.7165)"><path d="m 0,0 c -0.323,0 -0.649,0.104 -0.924,0.319 -0.652,0.51 -0.766,1.453 -0.257,2.105 l 7.201,9.202 c 0.51,0.652 1.453,0.767 2.106,0.257 0.652,-0.51 0.767,-1.453 0.257,-2.106 L 1.183,0.576 C 0.887,0.198 0.445,0 0,0" style="fill:#f7f7db;fill-opacity:1;fill-rule:nonzero;stroke:none" id="path112"/></g><g id="g114" transform="translate(442.6221,448.7238)"><path d="M 0,0 C -0.425,0 -0.847,0.179 -1.144,0.528 L -9.88,10.795 c -0.537,0.631 -0.46,1.578 0.171,2.115 0.631,0.535 1.578,0.46 2.114,-0.171 L 1.142,2.472 C 1.679,1.841 1.602,0.895 0.971,0.357 0.688,0.118 0.344,0 0,0" style="fill:#ffffff;fill-opacity:1;fill-rule:nonzero;stroke:none" id="path116"/></g><g id="g118" transform="translate(384.2983,468.862)"><path d="m 0,0 c -0.424,0 -0.846,0.179 -1.143,0.528 l -8.736,10.267 c -0.537,0.631 -0.461,1.578 0.17,2.115 0.63,0.535 1.578,0.461 2.115,-0.171 L 1.142,2.472 C 1.679,1.841 1.603,0.895 0.972,0.357 0.689,0.118 0.344,0 0,0" style="fill:#ffffff;fill-opacity:1;fill-rule:nonzero;stroke:none" id="path120"/></g><g id="g122" transform="translate(302.356,467.8669)"><path d="m 0,0 c -0.224,0 -0.45,0.05 -0.664,0.156 -0.742,0.367 -1.047,1.267 -0.68,2.009 L 4.492,13.97 c 0.369,0.743 1.27,1.045 2.009,0.68 0.743,-0.367 1.048,-1.267 0.681,-2.009 L 1.346,0.836 C 1.084,0.307 0.552,0 0,0" style="fill:#ffffff;fill-opacity:1;fill-rule:nonzero;stroke:none" id="path124"/></g><g id="g126" transform="translate(340.1997,478.2243)"><path d="m 0,0 c -0.588,0 -1.146,0.348 -1.385,0.924 -0.319,0.765 0.044,1.643 0.808,1.961 L 10.841,7.634 C 11.606,7.954 12.483,7.591 12.802,6.826 13.12,6.061 12.758,5.183 11.993,4.865 L 0.576,0.116 C 0.387,0.037 0.192,0 0,0" style="fill:#ffffff;fill-opacity:1;fill-rule:nonzero;stroke:none" id="path128"/></g><g id="g130" transform="translate(272.166,439.5754)"><path d="m 0,0 c -0.424,0 -0.846,0.179 -1.143,0.528 l -8.736,10.266 c -0.537,0.631 -0.46,1.578 0.171,2.115 0.63,0.536 1.577,0.461 2.114,-0.17 L 1.142,2.472 C 1.679,1.841 1.603,0.895 0.972,0.357 0.689,0.118 0.344,0 0,0" style="fill:#ffffff;fill-opacity:1;fill-rule:nonzero;stroke:none" id="path132"/></g><g id="g134" transform="translate(461.0225,341.4758)"><path d="M 0,0 C -0.196,0 -0.396,0.039 -0.588,0.121 -1.35,0.446 -1.704,1.327 -1.379,2.089 l 5.11,11.984 c 0.326,0.762 1.206,1.115 1.969,0.791 0.762,-0.325 1.116,-1.206 0.791,-1.968 L 1.381,0.912 C 1.138,0.342 0.583,0 0,0" style="fill:#ffffff;fill-opacity:1;fill-rule:nonzero;stroke:none" id="path136"/></g><g id="g138" transform="translate(464.6855,389.302)"><path d="m 0,0 c -0.112,0 -0.226,0.013 -0.34,0.039 -0.806,0.188 -1.309,0.993 -1.122,1.8 l 2.899,12.503 c 0.187,0.807 0.99,1.31 1.8,1.123 0.807,-0.188 1.31,-0.993 1.122,-1.8 L 1.46,1.162 C 1.3,0.469 0.683,0 0,0" style="fill:#ffffff;fill-opacity:1;fill-rule:nonzero;stroke:none" id="path140"/></g><g id="g142" transform="translate(243.2773,413.3396)"><path d="m 0,0 c -0.434,0 -0.863,0.187 -1.16,0.547 -0.526,0.64 -0.433,1.586 0.206,2.112 l 9.726,7.993 c 0.641,0.527 1.586,0.433 2.111,-0.206 0.527,-0.64 0.434,-1.585 -0.206,-2.111 L 0.952,0.341 C 0.672,0.112 0.335,0 0,0" style="fill:#ffffff;fill-opacity:1;fill-rule:nonzero;stroke:none" id="path144"/></g><g id="g146" transform="translate(363.144,270.0876)"><path d="m 0,0 c -0.275,0 -0.553,0.075 -0.802,0.233 l -10.737,6.811 c -0.699,0.443 -0.906,1.37 -0.462,2.07 0.443,0.7 1.369,0.908 2.07,0.463 L 0.805,2.767 C 1.504,2.323 1.712,1.396 1.268,0.696 0.982,0.246 0.497,0 0,0" style="fill:#ffffff;fill-opacity:1;fill-rule:nonzero;stroke:none" id="path148"/></g><g id="g150" transform="translate(394.2227,286.4704)"><path d="m 0,0 c -0.581,0 -1.133,0.339 -1.378,0.906 -0.328,0.761 0.023,1.643 0.783,1.971 L 10.916,7.842 C 11.677,8.171 12.56,7.819 12.888,7.059 13.216,6.298 12.865,5.416 12.104,5.088 L 0.594,0.123 C 0.4,0.039 0.198,0 0,0" style="fill:#ffffff;fill-opacity:1;fill-rule:nonzero;stroke:none" id="path152"/></g><g id="g154" transform="translate(140.438,193.9583)"><path d="m 0,0 c -0.098,-0.745 -0.741,-1.314 -1.51,-1.302 l -11.775,0.181 c -0.827,0.013 -1.489,0.695 -1.476,1.523 0.01,0.828 0.694,1.49 1.523,1.477 L -1.464,1.697 C -0.636,1.685 0.026,1.003 0.013,0.175 0.012,0.116 0.008,0.057 0,0" style="fill:#ffffff;fill-opacity:1;fill-rule:nonzero;stroke:none" id="path156"/></g><g id="g158" transform="translate(111.7166,195.9565)"><path d="m 0,0 c -0.044,-0.331 -0.197,-0.649 -0.459,-0.895 l -8.61,-8.1 c -0.604,-0.567 -1.554,-0.538 -2.121,0.065 -0.567,0.603 -0.54,1.552 0.064,2.12 l 8.611,8.099 C -1.911,1.857 -0.962,1.828 -0.394,1.225 -0.074,0.883 0.057,0.431 0,0" style="fill:#ffffff;fill-opacity:1;fill-rule:nonzero;stroke:none" id="path160"/></g><g id="g162" transform="translate(329.2754,363.6955)"><path d="m 0,0 c 2.444,-10.468 -4.061,-20.936 -14.529,-23.38 -10.469,-2.444 -20.936,4.061 -23.38,14.529 -2.445,10.468 4.06,20.936 14.529,23.38 C -12.912,16.973 -2.444,10.468 0,0" style="fill:#f7f7db;fill-opacity:1;fill-rule:nonzero;stroke:none" id="path164"/></g><g id="g166" transform="translate(326.6985,364.5097)"><path d="m 0,0 c 1.08,-4.627 -1.795,-9.253 -6.421,-10.333 -4.627,-1.081 -9.254,1.794 -10.334,6.421 -1.08,4.627 1.795,9.253 6.422,10.333 C -5.707,7.502 -1.08,4.627 0,0" style="fill:#26abd0;fill-opacity:1;fill-rule:nonzero;stroke:none" id="path168"/></g><g id="g170" transform="translate(432.3581,393.5144)"><path d="m 0,0 c 2.444,-10.468 -4.061,-20.936 -14.529,-23.38 -10.469,-2.444 -20.936,4.061 -23.381,14.529 -2.444,10.468 4.061,20.936 14.53,23.38 C -12.912,16.973 -2.444,10.468 0,0" style="fill:#f7f7db;fill-opacity:1;fill-rule:nonzero;stroke:none" id="path172"/></g><g id="g174" transform="translate(430.0872,392.7586)"><path d="m 0,0 c 1.08,-4.627 -1.795,-9.253 -6.421,-10.333 -4.627,-1.081 -9.254,1.794 -10.334,6.421 -1.08,4.627 1.795,9.253 6.422,10.333 C -5.707,7.502 -1.08,4.627 0,0" style="fill:#26abd0;fill-opacity:1;fill-rule:nonzero;stroke:none" id="path176"/></g><g id="g178" transform="translate(355.2725,450.0378)"><path d="m 0,0 c -0.172,0 -0.348,0.03 -0.519,0.093 l -12.022,4.429 c -0.777,0.287 -1.175,1.149 -0.889,1.926 0.287,0.778 1.15,1.175 1.927,0.889 L 0.519,2.908 C 1.296,2.622 1.694,1.759 1.408,0.982 1.184,0.375 0.61,0 0,0" style="fill:#ffffff;fill-opacity:1;fill-rule:nonzero;stroke:none" id="path180"/></g><g id="g182" transform="translate(311.2788,443.3845)"><path d="m 0,0 c -0.403,0 -0.806,0.162 -1.101,0.481 -0.563,0.608 -0.526,1.557 0.081,2.12 l 9.403,8.703 c 0.608,0.563 1.558,0.526 2.119,-0.082 0.563,-0.608 0.527,-1.557 -0.081,-2.119 L 1.019,0.399 C 0.73,0.132 0.364,0 0,0" style="fill:#ffffff;fill-opacity:1;fill-rule:nonzero;stroke:none" id="path184"/></g><g id="g186" transform="translate(391.4111,455.5862)"><path d="m 0,0 c -0.403,0 -0.806,0.162 -1.101,0.481 -0.563,0.608 -0.526,1.557 0.081,2.12 l 9.403,8.702 c 0.608,0.564 1.557,0.527 2.119,-0.081 0.563,-0.608 0.527,-1.557 -0.081,-2.12 L 1.019,0.399 C 0.73,0.132 0.364,0 0,0" style="fill:#ffffff;fill-opacity:1;fill-rule:nonzero;stroke:none" id="path188"/></g><g id="g190" transform="translate(387.4229,421.1887)"><path d="m 0,0 c -0.03,0 -0.06,0.001 -0.09,0.002 -0.827,0.049 -1.458,0.759 -1.409,1.586 0.028,0.472 0.805,11.606 11.482,16.011 12.385,5.107 20.442,-5.053 20.521,-5.156 0.508,-0.655 0.388,-1.597 -0.267,-2.105 C 29.581,9.832 28.639,9.95 28.132,10.606 27.863,10.95 21.363,19.048 11.128,14.826 2.17,11.131 1.501,1.508 1.496,1.412 1.449,0.615 0.788,0 0,0" style="fill:#f7f7db;fill-opacity:1;fill-rule:nonzero;stroke:none" id="path192"/></g><g id="g194" transform="translate(274.5072,451.9634)"><path d="M 0,0 C 10.144,-1.901 11.906,-3.955 15.075,8.193 18.788,22.429 32.747,107.576 -9.022,104.668 -44.266,102.214 -19.102,6.964 -18.091,-1.848 -17.08,-10.661 -12.718,4.045 0,0" style="fill:#adddf2;fill-opacity:1;fill-rule:nonzero;stroke:none" id="path196"/></g><g id="g198" transform="translate(275.0308,482.4729)"><path d="m 0,0 c -0.226,0 -0.456,0.051 -0.671,0.16 -0.741,0.371 -1.04,1.273 -0.669,2.013 l 8.358,16.66 c 0.371,0.74 1.273,1.04 2.013,0.668 0.74,-0.372 1.04,-1.273 0.668,-2.013 L 1.342,0.828 C 1.079,0.303 0.549,0 0,0" style="fill:#ffffff;fill-opacity:1;fill-rule:nonzero;stroke:none" id="path200"/></g><g id="g202" transform="translate(267.1787,508.8283)"><path d="m 0,0 c -0.434,0 -0.865,0.187 -1.162,0.55 l -13.133,16.037 c -0.525,0.641 -0.431,1.586 0.21,2.111 0.641,0.525 1.585,0.43 2.111,-0.21 L 1.16,2.45 C 1.685,1.81 1.59,0.864 0.949,0.339 0.67,0.111 0.334,0 0,0" style="fill:#ffffff;fill-opacity:1;fill-rule:nonzero;stroke:none" id="path204"/></g><g id="g206" transform="translate(410.0453,265.5519)"><path d="M 0,0 Z M 1.127,-0.379 C 1.13,-0.381 1.134,-0.382 1.137,-0.384 1.134,-0.382 1.13,-0.381 1.127,-0.379 M 1.139,-0.385 C 1.144,-0.387 1.148,-0.388 1.153,-0.39 1.148,-0.388 1.144,-0.387 1.139,-0.385 m 22.275,-22.309 c -1.421,0 -2.883,0.033 -4.39,0.099 -11.472,0.505 -23.33,2.824 -25.482,3.709 -5.107,2.102 -7.543,7.947 -5.442,13.054 1.962,4.767 7.184,7.206 12.023,5.803 1.702,-0.407 10.36,-2.147 19.541,-2.575 12.455,-0.576 17.186,1.698 17.862,2.542 6.999,13.941 21.848,45.502 21.997,45.819 2.35,4.998 8.306,7.144 13.305,4.794 C 77.826,48.2 79.971,42.243 77.621,37.246 77.007,35.941 62.512,5.131 55.353,-9.115 50.821,-18.135 40.084,-22.694 23.414,-22.694" style="fill:#49c1ec;fill-opacity:1;fill-rule:nonzero;stroke:none" id="path208"/></g><g id="g210" transform="translate(420.973,224.324)"><path d="m 0,0 c 0,-36.517 -29.603,-66.12 -66.12,-66.12 -36.518,0 -66.121,29.603 -66.121,66.12 0,36.517 29.603,66.12 66.121,66.12 C -29.603,66.12 0,36.517 0,0" style="fill:#adddf2;fill-opacity:1;fill-rule:nonzero;stroke:none" id="path212"/></g><g id="g214" transform="translate(354.2109,210.2732)"><path d="m 0,0 c -0.689,0 -1.31,0.478 -1.463,1.178 l -2.971,13.52 c -0.178,0.81 0.334,1.61 1.143,1.787 0.809,0.184 1.609,-0.334 1.787,-1.142 L 1.466,1.822 C 1.645,1.013 1.132,0.213 0.323,0.035 0.215,0.011 0.106,0 0,0" style="fill:#ffffff;fill-opacity:1;fill-rule:nonzero;stroke:none" id="path216"/></g><g id="g218" transform="translate(358.8911,176.5564)"><path d="M 0,0 C -0.186,0 -0.375,0.034 -0.558,0.107 -1.327,0.416 -1.7,1.29 -1.392,2.059 l 4.361,10.866 c 0.308,0.769 1.18,1.142 1.95,0.834 0.769,-0.309 1.143,-1.183 0.834,-1.951 L 1.393,0.941 C 1.158,0.355 0.595,0 0,0" style="fill:#ffffff;fill-opacity:1;fill-rule:nonzero;stroke:none" id="path220"/></g><g id="g222" transform="translate(386.4043,244.5505)"><path d="m 0,0 c -0.212,0 -0.428,0.045 -0.634,0.141 -0.75,0.35 -1.074,1.243 -0.724,1.994 l 5.05,10.818 c 0.351,0.75 1.242,1.075 1.995,0.725 0.75,-0.351 1.074,-1.243 0.724,-1.994 L 1.36,0.865 C 1.105,0.32 0.564,0 0,0" style="fill:#ffffff;fill-opacity:1;fill-rule:nonzero;stroke:none" id="path224"/></g><g id="g226" transform="translate(318.3218,238.7097)"><path d="m 0,0 c -0.579,0 -1.129,0.336 -1.375,0.9 l -5.539,12.688 c -0.331,0.759 0.016,1.642 0.775,1.975 0.76,0.329 1.644,-0.016 1.974,-0.776 L 1.374,2.1 C 1.705,1.341 1.358,0.457 0.599,0.125 0.404,0.04 0.2,0 0,0" style="fill:#ffffff;fill-opacity:1;fill-rule:nonzero;stroke:none" id="path228"/></g><g id="g230" transform="translate(315.6831,190.8288)"><path d="m 0,0 c -0.185,0 -0.373,0.034 -0.555,0.106 -0.77,0.307 -1.145,1.18 -0.838,1.95 l 5.127,12.859 c 0.307,0.769 1.178,1.143 1.949,0.838 0.77,-0.307 1.145,-1.18 0.838,-1.949 L 1.394,0.944 C 1.16,0.357 0.596,0 0,0" style="fill:#ffffff;fill-opacity:1;fill-rule:nonzero;stroke:none" id="path232"/></g><g id="g234" transform="translate(339.5737,166.9685)"><path d="m 0,0 c -0.518,0 -1.022,0.269 -1.3,0.749 l -6.93,11.984 c -0.415,0.717 -0.17,1.635 0.547,2.05 0.717,0.415 1.635,0.169 2.05,-0.548 L 1.297,2.251 C 1.712,1.534 1.467,0.616 0.75,0.201 0.513,0.064 0.255,0 0,0" style="fill:#ffffff;fill-opacity:1;fill-rule:nonzero;stroke:none" id="path236"/></g><g id="g238" transform="translate(409.2964,221.3571)"><path d="m 0,0 c -0.491,0 -0.972,0.24 -1.259,0.683 l -6.112,9.411 c -0.451,0.695 -0.254,1.624 0.441,2.075 0.696,0.452 1.624,0.253 2.075,-0.44 L 1.256,2.317 C 1.708,1.622 1.51,0.693 0.815,0.242 0.563,0.078 0.28,0 0,0" style="fill:#ffffff;fill-opacity:1;fill-rule:nonzero;stroke:none" id="path240"/></g><g id="g242" transform="translate(364.4961,257.5808)"><path d="m 0,0 c -0.579,0 -1.129,0.336 -1.375,0.899 l -5.539,12.688 c -0.332,0.76 0.015,1.643 0.774,1.976 0.761,0.33 1.644,-0.017 1.975,-0.775 L 1.374,2.101 C 1.705,1.341 1.358,0.457 0.599,0.125 0.404,0.04 0.2,0 0,0" style="fill:#ffffff;fill-opacity:1;fill-rule:nonzero;stroke:none" id="path244"/></g><g id="g246" transform="translate(346.9165,244.6364)"><path d="m 0,0 c -0.689,0 -1.31,0.478 -1.463,1.178 l -2.971,13.521 c -0.178,0.81 0.334,1.61 1.143,1.787 0.809,0.183 1.609,-0.334 1.787,-1.142 L 1.466,1.822 C 1.645,1.013 1.132,0.213 0.323,0.035 0.215,0.011 0.106,0 0,0" style="fill:#ffffff;fill-opacity:1;fill-rule:nonzero;stroke:none" id="path248"/></g><g id="g250" transform="translate(388.9307,190.9695)"><path d="m 0,0 c -0.165,0 -0.333,0.027 -0.497,0.085 -0.781,0.273 -1.192,1.13 -0.919,1.912 l 4.414,12.577 c 0.274,0.781 1.13,1.194 1.912,0.918 0.781,-0.273 1.193,-1.13 0.919,-1.912 L 1.416,1.003 C 1.199,0.386 0.619,0 0,0" style="fill:#ffffff;fill-opacity:1;fill-rule:nonzero;stroke:none" id="path252"/></g><g id="g254" transform="translate(283.7451,387.5329)"><path d="m 0,0 c -0.03,0 -0.06,0.001 -0.09,0.002 -0.827,0.049 -1.458,0.759 -1.409,1.586 0.028,0.472 0.805,11.606 11.482,16.011 12.385,5.108 20.442,-5.053 20.521,-5.156 0.508,-0.655 0.388,-1.597 -0.267,-2.105 -0.656,-0.507 -1.598,-0.387 -2.105,0.268 -0.269,0.344 -6.768,8.441 -17.004,4.22 C 2.17,11.131 1.501,1.508 1.496,1.412 1.449,0.615 0.788,0 0,0" style="fill:#f7f7db;fill-opacity:1;fill-rule:nonzero;stroke:none" id="path256"/></g><g id="g258" transform="translate(359.3354,344.5364)"><path d="m 0,0 28.086,8.067 c 0,0 1.19,-19.544 -11.86,-21.677 C 3.177,-15.743 0,0 0,0" style="fill:#e63312;fill-opacity:1;fill-rule:nonzero;stroke:none" id="path260"/></g><g id="g262" transform="translate(494.2972,311.0612)"><path d="m 0,0 c -2.726,-6.629 -10.309,-9.792 -16.938,-7.067 -6.628,2.726 -9.792,10.309 -7.066,16.938 2.726,6.629 10.309,9.792 16.937,7.066 C -0.438,14.212 2.726,6.629 0,0" style="fill:#46c0ec;fill-opacity:1;fill-rule:nonzero;stroke:none" id="path264"/></g><g id="g266" transform="translate(481.4169,322.3034)"><path d="m 0,0 c -1.067,0 -2.101,0.571 -2.644,1.576 -0.786,1.459 -0.242,3.278 1.217,4.065 l 18.031,9.726 c 1.458,0.788 3.278,0.242 4.065,-1.216 0.786,-1.459 0.242,-3.278 -1.217,-4.065 L 1.421,0.36 C 0.969,0.116 0.48,0 0,0" style="fill:#46c0ec;fill-opacity:1;fill-rule:nonzero;stroke:none" id="path268"/></g><g id="g270" transform="translate(486.662,320.1442)"><path d="m 0,0 c -1.297,0 -2.493,0.848 -2.877,2.155 -0.468,1.59 0.442,3.257 2.032,3.724 l 8.981,2.64 C 9.727,8.988 11.393,8.076 11.859,6.487 12.327,4.897 11.417,3.229 9.827,2.762 L 0.847,0.123 C 0.564,0.04 0.279,0 0,0" style="fill:#46c0ec;fill-opacity:1;fill-rule:nonzero;stroke:none" id="path272"/></g><g id="g274" transform="translate(487.8144,316.0036)"><path d="m 0,0 c -1.372,0 -2.61,0.947 -2.924,2.342 -0.363,1.616 0.653,3.222 2.269,3.585 l 10.74,2.416 C 11.704,8.705 13.307,7.691 13.67,6.075 14.033,4.458 13.018,2.853 11.401,2.49 L 0.661,0.074 C 0.439,0.024 0.218,0 0,0" style="fill:#46c0ec;fill-opacity:1;fill-rule:nonzero;stroke:none" id="path276"/></g><g id="g278" transform="translate(490.7265,311.235)"><path d="M 0,0 C -1.369,0 -2.605,0.943 -2.922,2.334 -3.29,3.95 -2.278,5.558 -0.663,5.926 L 8.932,8.11 c 1.62,0.364 3.223,-0.644 3.59,-2.259 C 12.891,4.235 11.879,2.627 10.264,2.259 L 0.669,0.075 C 0.444,0.024 0.221,0 0,0" style="fill:#46c0ec;fill-opacity:1;fill-rule:nonzero;stroke:none" id="path280"/></g><g id="g282" transform="translate(488.3808,305.5329)"><path d="m 0,0 c -1.479,0 -2.768,1.095 -2.97,2.602 -0.219,1.642 0.933,3.152 2.575,3.372 L 11.833,7.612 C 13.472,7.831 14.984,6.679 15.205,5.037 15.425,3.395 14.272,1.885 12.63,1.665 L 0.402,0.027 C 0.268,0.009 0.133,0 0,0" style="fill:#46c0ec;fill-opacity:1;fill-rule:nonzero;stroke:none" id="path284"/></g><g id="g286" transform="translate(470.4394,331.7941)"><path d="m 0,0 h 0.01 z m 4.997,-18.387 c -1.497,0 -2.792,1.119 -2.975,2.643 C 1.313,-9.829 0.216,-1.056 -0.025,0.088 -0.441,1.649 0.456,3.268 2.014,3.734 3.604,4.21 5.272,3.307 5.748,1.721 5.997,0.89 6.747,-4.746 7.979,-15.03 8.177,-16.675 7.003,-18.168 5.357,-18.365 5.236,-18.38 5.116,-18.387 4.997,-18.387" style="fill:#46c0ec;fill-opacity:1;fill-rule:nonzero;stroke:none" id="path288"/></g><g id="g290" transform="translate(352.7271,268.7331)"><path d="m 0,0 c -49.056,-2.317 -122.555,32.502 -122.555,99.189 0,46.594 35.389,114.749 120.868,117.936 49.077,1.83 123.336,-36.622 123.336,-111.802 C 121.649,58.729 79.482,3.755 0,0 m -1.529,227.281 c -72.251,0 -130.822,-53.257 -130.822,-118.953 0,-65.696 58.571,-118.953 130.822,-118.953 72.252,0 130.823,53.257 130.823,118.953 0,65.696 -58.571,118.953 -130.823,118.953" style="fill:#e9f6fe;fill-opacity:1;fill-rule:nonzero;stroke:none" id="path292"/></g></g></g><g id="g294"><g id="g296" clip-path="url(#clipPath300)"><g id="g302"><g id="g304"/><g id="g334" mask="url(#mask322)"><g id="g336"><path d="m 231.085,374.764 c 0,-60.682 54.463,-109.875 121.646,-109.875 v 0 c 67.183,0 121.646,49.193 121.646,109.875 v 0 c 0,60.684 -54.463,109.877 -121.646,109.877 v 0 c -67.183,0 -121.646,-49.193 -121.646,-109.877" style="fill:url(#radialGradient348);stroke:none" id="path350"/></g></g></g></g></g><g id="g352"><g id="g354" clip-path="url(#clipPath358)"><g id="g360" transform="translate(369.9735,116.5828)"><path d="m 0,0 c -11.748,3.596 -18.169,-12.983 -11.579,-18.637 6.589,-5.654 49.617,-47.188 57.005,-39.48 2.77,2.89 -7.557,9.322 -1.435,14.744 6.123,5.422 14.634,-1.002 16.761,3.777 2.128,4.779 -11.617,5.171 -5.3,12.249 6.317,7.078 12.538,0.394 13.593,6.93 C 70.1,-13.881 7.311,-2.238 0,0" style="fill:#ffed00;fill-opacity:1;fill-rule:nonzero;stroke:none" id="path362"/></g><g id="g364" transform="translate(259.3856,123.2458)"><path d="m 0,0 c -2.604,12.204 14.475,17.142 19.564,9.958 5.09,-7.185 42.927,-54.528 34.618,-61.271 -3.116,-2.528 -8.668,8.504 -14.591,2.825 -5.922,-5.678 -0.225,-14.876 -5.172,-16.578 -4.946,-1.703 -4.186,12.218 -11.777,6.497 C 15.05,-64.29 21.198,-71.198 14.589,-71.653 7.979,-72.109 1.621,-7.594 0,0" style="fill:#ffed00;fill-opacity:1;fill-rule:nonzero;stroke:none" id="path366"/></g><g id="g368" transform="translate(306.356,247.4719)"><path d="M 0,0 Z M -0.871,0.513 C -0.873,0.516 -0.876,0.517 -0.878,0.519 -0.876,0.517 -0.873,0.516 -0.871,0.513 M -0.88,0.52 C -0.883,0.523 -0.887,0.524 -0.89,0.527 -0.887,0.524 -0.883,0.523 -0.88,0.52 m -14.672,22.596 c 1.18,-0.246 2.387,-0.527 3.627,-0.844 9.436,-2.41 18.882,-6.411 20.516,-7.527 3.88,-2.649 4.903,-7.981 2.284,-11.907 C 8.431,-0.826 3.679,-1.971 -0.097,0.046 -1.44,0.682 -8.33,3.643 -15.876,5.591 c -10.24,2.641 -14.557,1.55 -15.262,0.958 -8.195,-10.498 -25.92,-34.437 -26.098,-34.677 -2.806,-3.791 -8.117,-4.563 -11.864,-1.723 -3.747,2.84 -4.508,8.215 -1.702,12.005 0.732,0.99 18.035,24.359 26.415,35.086 5.305,6.791 14.997,8.762 28.835,5.876" style="fill:#49c1ec;fill-opacity:1;fill-rule:nonzero;stroke:none" id="path370"/></g><g id="g372" transform="translate(228.6357,223.8333)"><path d="m 0,0 c 3.397,5.096 10.232,6.44 15.268,3.003 5.036,-3.437 6.365,-10.354 2.968,-15.45 C 14.839,-17.543 8.003,-18.887 2.968,-15.45 -2.068,-12.013 -3.397,-5.096 0,0" style="fill:#46c0ec;fill-opacity:1;fill-rule:nonzero;stroke:none" id="path374"/></g><g id="g376" transform="translate(237.4036,212.1605)"><path d="M 0,0 C 0.886,-0.185 1.646,-0.843 1.925,-1.782 2.328,-3.143 1.565,-4.577 0.219,-4.985 l -16.631,-5.047 c -1.344,-0.41 -2.762,0.364 -3.166,1.724 -0.403,1.362 0.36,2.796 1.706,3.204 l 16.631,5.047 C -0.824,0.071 -0.399,0.083 0,0" style="fill:#46c0ec;fill-opacity:1;fill-rule:nonzero;stroke:none" id="path378"/></g><g id="g380" transform="translate(233.4193,214.8822)"><path d="M 0,0 C 1.076,-0.225 1.924,-1.144 2.019,-2.308 2.136,-3.724 1.095,-4.967 -0.305,-5.085 l -7.906,-0.662 c -1.4,-0.119 -2.627,0.936 -2.743,2.352 -0.116,1.416 0.925,2.659 2.324,2.776 l 7.906,0.663 C -0.475,0.064 -0.232,0.048 0,0" style="fill:#46c0ec;fill-opacity:1;fill-rule:nonzero;stroke:none" id="path382"/></g><g id="g384" transform="translate(233.1712,218.5596)"><path d="M 0,0 C 1.139,-0.238 2.005,-1.248 2.026,-2.474 2.051,-3.894 0.934,-5.067 -0.47,-5.092 l -9.329,-0.17 c -1.405,-0.023 -2.562,1.105 -2.587,2.526 -0.025,1.421 1.093,2.593 2.496,2.619 l 9.329,0.17 C -0.369,0.056 -0.181,0.038 0,0" style="fill:#46c0ec;fill-opacity:1;fill-rule:nonzero;stroke:none" id="path386"/></g><g id="g388" transform="translate(231.5699,223.0691)"><path d="M 0,0 C 1.136,-0.237 2.001,-1.243 2.026,-2.467 2.055,-3.888 0.94,-5.063 -0.463,-5.092 l -8.338,-0.173 c -1.407,-0.026 -2.566,1.099 -2.594,2.519 -0.03,1.421 1.085,2.596 2.489,2.625 l 8.338,0.174 C -0.373,0.056 -0.183,0.038 0,0" style="fill:#46c0ec;fill-opacity:1;fill-rule:nonzero;stroke:none" id="path390"/></g><g id="g392" transform="translate(234.4925,227.4525)"><path d="M 0,0 C 1.228,-0.256 2.11,-1.399 2.02,-2.7 1.921,-4.117 0.706,-5.186 -0.695,-5.086 l -10.43,0.741 c -1.397,0.1 -2.456,1.33 -2.358,2.747 0.099,1.417 1.313,2.485 2.715,2.386 L -0.339,0.047 C -0.224,0.039 -0.11,0.023 0,0" style="fill:#46c0ec;fill-opacity:1;fill-rule:nonzero;stroke:none" id="path394"/></g><g id="g396" transform="translate(244.8918,202.2882)"><path d="M 0,0 -0.008,0.002 Z M -1.002,16.309 C 0.241,16.05 1.124,14.886 1.015,13.574 0.591,8.483 0.001,0.924 0.006,-0.079 0.084,-1.461 -0.938,-2.666 -2.31,-2.788 c -1.402,-0.124 -2.632,0.923 -2.756,2.338 -0.064,0.741 0.278,5.605 1.014,14.456 0.118,1.416 1.348,2.467 2.747,2.347 0.103,-0.008 0.204,-0.023 0.303,-0.044" style="fill:#46c0ec;fill-opacity:1;fill-rule:nonzero;stroke:none" id="path398"/></g><g id="g400" transform="translate(301.0141,459.3587)"><path d="M 0,0 C -19.113,-8.788 -35.07,-29.629 -38.225,-38.525" style="fill:none;stroke:#ffffff;stroke-width:8;stroke-linecap:round;stroke-linejoin:round;stroke-miterlimit:10;stroke-dasharray:none;stroke-opacity:1" id="path402"/></g><g id="g404" transform="translate(256.0108,406.2122)"><path d="M 0,0 C -0.515,-2.977 -3.44,-10.898 -1.313,-17.478" style="fill:none;stroke:#ffffff;stroke-width:8;stroke-linecap:round;stroke-linejoin:round;stroke-miterlimit:10;stroke-dasharray:none;stroke-opacity:1" id="path406"/></g></g></g></g></svg>