<?xml version="1.0" encoding="UTF-8"?><!-- Created with Inkscape (http://www.inkscape.org/) --><svg xmlns:svg="http://www.w3.org/2000/svg" xmlns="http://www.w3.org/2000/svg" xmlns:sodipodi="http://sodipodi.sourceforge.net/DTD/sodipodi-0.dtd" xmlns:inkscape="http://www.inkscape.org/namespaces/inkscape" version="1.1" id="svg2" width="1610.08" height="1145.196" viewBox="0 0 1610.08 1145.196"><defs id="defs6"><clipPath clipPathUnits="userSpaceOnUse" id="clipPath16"><path d="M 0,858.897 H 1207.558 V 0 H 0 Z" id="path14"/></clipPath></defs><g id="g8" transform="matrix(1.3333333,0,0,-1.3333333,0,1145.196)"><g id="g10"><g id="g12" clip-path="url(#clipPath16)"><g id="g18" transform="translate(327.9194,365.8495)"><path d="m 0,0 c -28.036,9.925 -45.162,25.806 -45.162,48.387 0,22.58 46.371,46.032 61.714,57.887 14.269,11.026 26.946,17.953 52.802,18.007 41.936,0.088 37.233,-7.394 64.517,-17.83 C 175.21,90.639 203.226,63.97 203.226,41.935 203.226,16.129 172.838,4.646 156.709,1.419 140.581,-1.808 114.516,0 91.935,0 69.354,0 17.758,-6.286 0,0" style="fill:#bcbec0;fill-opacity:1;fill-rule:nonzero;stroke:none" id="path20"/></g><g id="g22" transform="translate(376.5039,470.8935)"><path d="m 0,0 c 6.021,0 -22,-19.5 -7.5,-17.5 18.387,2.536 2,-14 11.5,-16.5 10.704,-2.817 11,15.5 20.5,11 9.5,-4.5 2,-27 8.5,-28.5 6.5,-1.5 20,-4.5 28.5,-5.5 8.5,-1 16,-4 15,-14 -1,-10 -20.5,-15.5 -24,-20 -3.5,-4.5 18.336,0 24.09,0 17.41,0 18.91,-15.225 4.91,-14.92 -4.03,0.088 -57.462,-0.47 -71.968,-1.119 -6.319,-0.283 -39.58,-1.389 -47.632,-0.482 -22.4,2.521 -56.058,24.489 -55.771,50.489 0.217,19.633 14.364,28.541 21.864,34.041 7.5,5.5 23.548,12.175 33.121,19.677 C -29.313,4.188 -2.441,13.081 1,10.5 7,6 -6.5,0 0,0" style="fill:#a7a9ac;fill-opacity:1;fill-rule:nonzero;stroke:none" id="path24"/></g><g id="g26" transform="translate(464.3789,446.8935)"><path d="M 0,0 C -5.5,-1.875 -4,-6.25 -1.346,-6.125 1.201,-6.005 7.625,-6.12 7.625,-2.06 7.625,2 4.286,1.461 0,0" style="fill:#39b54a;fill-opacity:1;fill-rule:nonzero;stroke:none" id="path28"/></g><g id="g30" transform="translate(468.8789,461.5185)"><path d="M 0,0 C 1.078,-0.735 3,-2.625 1.375,-3.375 -0.25,-4.125 -2.125,-5 -3.25,-4 -4.375,-3 -7.625,-2.125 -6.5,-0.625 -5.375,0.875 -1.248,0.851 0,0" style="fill:#39b54a;fill-opacity:1;fill-rule:nonzero;stroke:none" id="path32"/></g><g id="g34" transform="translate(486.0039,440.7661)"><path d="M 0,0 C -1.601,-0.749 -3.864,-3.531 -2.625,-4.176 -1.125,-4.958 1.5,-4.873 3.25,-3.248 5,-1.623 5.5,0.252 4.375,0.877 3.25,1.502 1.071,0.501 0,0" style="fill:#39b54a;fill-opacity:1;fill-rule:nonzero;stroke:none" id="path36"/></g><g id="g38" transform="translate(490.9795,452.7685)"><path d="m 0,0 c -2.133,-0.066 -5.954,-1.56 -6.476,-2.5 -0.625,-1.125 0.727,-3.044 3.375,-2.294 1.008,0.285 4.375,1.419 5,2.294 C 3.071,-0.86 2.311,0.072 0,0" style="fill:#39b54a;fill-opacity:1;fill-rule:nonzero;stroke:none" id="path40"/></g><g id="g42" transform="translate(477.1289,455.2685)"><path d="M 0,0 C -1.132,0 -4.125,-1.992 -2.25,-2.496 -0.375,-3 2.875,-3.992 4.125,-2.496 5.375,-1 2.25,0 0,0" style="fill:#39b54a;fill-opacity:1;fill-rule:nonzero;stroke:none" id="path44"/></g><g id="g46" transform="translate(502.0039,437.0185)"><path d="m 0,0 c -1.011,-0.495 -4.125,-2.875 -2.125,-2.75 2,0.125 4.25,0.246 5.125,1.373 C 3.875,-0.25 1.455,0.712 0,0" style="fill:#39b54a;fill-opacity:1;fill-rule:nonzero;stroke:none" id="path48"/></g><g id="g50" transform="translate(464.0039,434.2636)"><path d="M 0,0 C -1.827,0.707 -4.696,0.943 -4.086,-0.995 -3.442,-3.042 -1.5,-2.495 0,-1.87 1.5,-1.245 1.145,-0.443 0,0" style="fill:#39b54a;fill-opacity:1;fill-rule:nonzero;stroke:none" id="path52"/></g><g id="g54" transform="translate(331.2539,445.8935)"><path d="m 0,0 c 2.505,-3.006 -10.25,-11.14 -5,-16.445 5.25,-5.305 12.5,4.305 18.5,0 6,-4.305 -3.25,-16.805 2.75,-18.055 6,-1.25 22.323,7.5 26.037,3.25 C 46,-35.5 40.75,-54 47.75,-54.75 c 7,-0.75 22.5,1.25 22,-6.5 -0.5,-7.75 -6.5,-7.5 -15.25,-9.75 -8.75,-2.25 -31.25,-2.5 -26,-4.75 5.25,-2.25 12.75,-0.5 11.75,-3 -1,-2.5 -15.5,-1.5 -19,-1.75 -3.5,-0.25 -11.5,0 -18.75,1.75 -7.25,1.75 -37.004,14.407 -44.75,30.75 -7.746,16.343 -4,20 -1.75,27 2.25,7 14,16.25 22.25,21 C -13.5,4.75 -0.25,16.25 1.5,12.75 2.923,9.904 -9.75,5.25 -7.75,2.25 -5.75,-0.75 -2.5,3 0,0" style="fill:#808285;fill-opacity:1;fill-rule:nonzero;stroke:none" id="path56"/></g></g></g></g></svg>