<?xml version="1.0" encoding="UTF-8"?><!-- Created with Inkscape (http://www.inkscape.org/) --><svg xmlns:svg="http://www.w3.org/2000/svg" xmlns="http://www.w3.org/2000/svg" xmlns:sodipodi="http://sodipodi.sourceforge.net/DTD/sodipodi-0.dtd" xmlns:inkscape="http://www.inkscape.org/namespaces/inkscape" version="1.1" id="svg2" width="793.70667" height="1122.52" viewBox="0 0 793.70667 1122.52"><defs id="defs6"><clipPath clipPathUnits="userSpaceOnUse" id="clipPath16"><path d="M 0,841.89 H 595.28 V 0 H 0 Z" id="path14"/></clipPath></defs><g id="g8" transform="matrix(1.3333333,0,0,-1.3333333,0,1122.52)"><g id="g10"><g id="g12" clip-path="url(#clipPath16)"><g id="g18" transform="translate(314.3333,436.2233)"><path d="m 0,0 c 0,-28.351 -22.983,-51.333 -51.333,-51.333 -28.351,0 -51.334,22.982 -51.334,51.333 0,28.351 22.983,51.333 51.334,51.333 C -22.983,51.333 0,28.351 0,0" style="fill:#ed6f8e;fill-opacity:1;fill-rule:nonzero;stroke:none" id="path20"/></g><g id="g22" transform="translate(242.0833,384.89)"><path d="m 0,0 c 0,-20.611 -16.328,-37.32 -36.47,-37.32 -20.141,0 -36.469,16.709 -36.469,37.32 0,20.611 16.328,37.32 36.469,37.32 C -16.328,37.32 0,20.611 0,0" style="fill:#ed6f8e;fill-opacity:1;fill-rule:nonzero;stroke:none" id="path24"/></g><g id="g26" transform="translate(226.5303,508.7915)"><path d="m 0,0 c 0,-5.393 -4.372,-9.765 -9.765,-9.765 -5.393,0 -9.765,4.372 -9.765,9.765 0,5.393 4.372,9.765 9.765,9.765 C -4.372,9.765 0,5.393 0,0" style="fill:#ed6f8e;fill-opacity:1;fill-rule:nonzero;stroke:none" id="path28"/></g><g id="g30" transform="translate(307.4052,503.7915)"><path d="m 0,0 c 0,-5.393 -4.372,-9.765 -9.765,-9.765 -5.393,0 -9.765,4.372 -9.765,9.765 0,5.393 4.372,9.765 9.765,9.765 C -4.372,9.765 0,5.393 0,0" style="fill:#ed6f8e;fill-opacity:1;fill-rule:nonzero;stroke:none" id="path32"/></g><g id="g34" transform="translate(248.9583,435.6117)"><path d="m 0,0 c 0,-8.1 -6.566,-14.667 -14.667,-14.667 -8.1,0 -14.666,6.567 -14.666,14.667 0,8.1 6.566,14.667 14.666,14.667 C -6.566,14.667 0,8.1 0,0" style="fill:#ffffff;fill-opacity:1;fill-rule:nonzero;stroke:none" id="path36"/></g><g id="g38" transform="translate(236.547,421.1102)"><path d="m 0,0 c -2.511,2.272 -4.089,5.557 -4.089,9.21 0,6.857 5.559,12.416 12.417,12.416 0.807,0 1.597,-0.077 2.361,-0.224 0,0 3.929,-5.232 0.325,-13.15 C 6.703,-1.22 0,0 0,0" style="fill:#1d1d1b;fill-opacity:1;fill-rule:nonzero;stroke:none" id="path40"/></g><g id="g42" transform="translate(305.5,436.9867)"><path d="m 0,0 c 0,-8.1 -6.566,-14.667 -14.667,-14.667 -8.1,0 -14.666,6.567 -14.666,14.667 0,8.1 6.566,14.667 14.666,14.667 C -6.566,14.667 0,8.1 0,0" style="fill:#ffffff;fill-opacity:1;fill-rule:nonzero;stroke:none" id="path44"/></g><g id="g46" transform="translate(285.25,411.89)"><path d="m 0,0 c 0,-1.243 -7.779,-2.25 -17.375,-2.25 -9.596,0 -17.375,1.007 -17.375,2.25 0,1.243 7.779,2.25 17.375,2.25 C -7.779,2.25 0,1.243 0,0" style="fill:#1d1d1b;fill-opacity:1;fill-rule:nonzero;stroke:none" id="path48"/></g><g id="g50" transform="translate(285.25,411.89)"><path d="m 0,0 c 0,-1.243 -7.779,-2.25 -17.375,-2.25 -9.596,0 -17.375,1.007 -17.375,2.25 0,1.243 7.779,2.25 17.375,2.25 C -7.779,2.25 0,1.243 0,0 Z" style="fill:none;stroke:#1d1d1b;stroke-width:1;stroke-linecap:butt;stroke-linejoin:miter;stroke-miterlimit:10;stroke-dasharray:none;stroke-opacity:1" id="path52"/></g><g id="g54" transform="translate(293.4164,422.3712)"><path d="m 0,0 c -2.511,2.272 -4.089,5.557 -4.089,9.21 0,6.857 5.559,12.416 12.417,12.416 0.807,0 1.597,-0.077 2.361,-0.224 0,0 3.929,-5.232 0.325,-13.15 C 6.703,-1.22 0,0 0,0" style="fill:#1d1d1b;fill-opacity:1;fill-rule:nonzero;stroke:none" id="path56"/></g></g></g></g></svg>